<svg version="1.1" id="Layer_1" xmlns="http://www.w3.org/2000/svg" xmlns:xlink="http://www.w3.org/1999/xlink" x="0px" y="0px"
	 width="100%" viewBox="0 0 496 496" enable-background="new 0 0 496 496" xml:space="preserve">
<path fill="#000000" opacity="1.000000" stroke="none" 
	d="
M48.857666,298.000000 
	C48.824554,231.023666 48.882225,164.547058 48.692539,98.071167 
	C48.647141,82.161552 41.424999,75.204887 25.407610,74.365425 
	C23.079220,74.243385 20.745180,74.196388 18.413330,74.181557 
	C15.605269,74.163689 14.688094,72.657066 14.714196,70.028793 
	C14.741446,67.285263 16.326052,66.669441 18.602358,66.698006 
	C19.601690,66.710548 20.601479,66.680779 21.601059,66.680771 
	C75.249031,66.680405 128.898163,66.468941 182.544556,66.761391 
	C214.732239,66.936859 246.262192,71.632378 275.991028,84.657448 
	C322.971008,105.240746 349.845123,141.919006 360.330231,191.455978 
	C365.011047,213.570419 366.409851,235.988922 365.166962,258.441711 
	C363.039093,296.880890 353.216248,332.940369 329.160706,363.985291 
	C311.779602,386.416504 289.324799,402.064392 263.138000,412.515289 
	C239.132812,422.095551 214.087769,427.053101 188.335175,428.328430 
	C143.553009,430.546204 98.734070,428.790833 53.934452,429.290710 
	C42.606503,429.417114 31.275852,429.324127 19.946568,429.290100 
	C17.494005,429.282745 14.785041,429.737762 14.691010,425.798737 
	C14.594268,421.746063 17.218916,421.778961 20.011831,421.718964 
	C23.663328,421.640533 27.277559,421.557861 30.926561,420.857819 
	C42.793522,418.581299 48.530762,412.485535 48.667873,400.461456 
	C48.914818,378.805054 48.819382,357.144653 48.851311,335.485901 
	C48.869488,323.157288 48.856655,310.828644 48.857666,298.000000 
M104.347969,337.499939 
	C104.353592,356.666046 104.307091,375.832336 104.385880,394.998138 
	C104.428047,405.256470 107.675102,413.776642 118.192955,417.591095 
	C121.922874,418.943848 125.846947,420.169006 129.766617,420.524994 
	C156.598373,422.961853 183.326172,422.666351 209.525787,415.466644 
	C238.679443,407.455200 262.410339,391.547546 279.582855,366.335358 
	C297.616852,339.858429 305.228760,309.883179 308.551453,278.627045 
	C310.273132,262.431305 310.849365,246.172577 309.924377,229.786362 
	C308.525238,204.999664 304.737427,180.826767 295.285400,157.806274 
	C280.653748,122.170662 256.204681,96.122993 219.595154,82.672470 
	C204.849274,77.254753 189.440384,74.464859 173.657776,74.326485 
	C157.520966,74.185013 141.320068,73.472649 125.414978,77.025887 
	C109.204193,80.647423 104.346794,86.946991 104.346863,103.505066 
	C104.347183,181.170013 104.348076,258.834961 104.347969,337.499939 
z"/>
<path fill="#000000" opacity="1.000000" stroke="none" 
	d="
M430.908081,395.892761 
	C444.179932,375.235107 442.796326,348.054932 427.899719,327.070648 
	C418.028595,313.165588 405.347260,302.172028 391.971161,291.935333 
	C388.090607,288.965546 386.596954,286.324646 387.458496,281.196747 
	C390.252045,264.569611 389.910370,247.724365 389.671112,230.917786 
	C389.645447,229.115524 389.667633,227.312576 389.667633,225.875626 
	C391.045288,225.018967 391.847107,225.234436 392.557800,225.707504 
	C414.309296,240.185593 436.628662,253.892868 455.701874,272.020020 
	C471.604858,287.134216 484.091278,304.400299 487.729095,326.573303 
	C492.185608,353.736450 488.792847,379.458405 470.705994,401.477112 
	C457.739227,417.262665 439.928436,425.097992 420.467041,429.058044 
	C384.796753,436.316315 350.009216,433.702881 316.724274,417.958038 
	C314.983734,417.134735 312.876984,416.756073 311.530243,414.274658 
	C314.472565,412.014771 317.427338,409.706177 320.426697,407.457092 
	C322.099304,406.202820 323.597900,407.224884 325.051605,408.015106 
	C348.595276,420.813416 373.522125,422.415985 399.137054,416.604034 
	C411.978638,413.690369 422.948639,407.272949 430.908081,395.892761 
z"/>
<path fill="#000000" opacity="1.000000" stroke="none" 
	d="
M415.474243,93.521133 
	C391.689087,80.455254 366.962158,76.184464 341.833282,86.543282 
	C333.125031,90.133064 327.779785,89.756386 321.862885,83.418060 
	C320.202209,81.639091 317.628845,80.786736 316.164581,78.014534 
	C322.201172,74.512779 328.861511,73.122612 335.422943,71.691841 
	C367.023163,64.801208 396.876129,69.593864 424.964783,85.544998 
	C431.075134,89.014969 437.371765,91.834457 444.381165,93.104431 
	C455.310791,95.084663 462.003937,90.230858 462.659088,79.272682 
	C462.839783,76.250687 463.335602,73.996819 467.069092,74.156624 
	C471.033783,74.326332 470.298279,77.233955 470.300385,79.610321 
	C470.331390,114.253807 470.334259,148.897324 470.320435,183.540833 
	C470.319397,186.135712 470.929108,189.180618 466.687103,189.158447 
	C462.325623,189.135651 462.797699,186.009781 462.659271,183.187836 
	C461.407959,157.682098 454.922272,133.986130 438.596588,113.697937 
	C432.161438,105.700851 424.488617,99.119217 415.474243,93.521133 
z"/>
<path fill="#000000" opacity="1.000000" stroke="none" 
	d="
M270.954651,331.580688 
	C268.391998,337.196045 266.261414,342.589386 262.795319,347.186462 
	C261.523254,346.832520 261.333954,346.056610 261.337708,345.196991 
	C261.423248,325.598572 261.501129,306.000092 261.624115,286.401917 
	C261.638672,284.082153 260.689423,281.090240 264.861755,281.174805 
	C268.666504,281.251923 268.186554,283.886322 268.392578,286.397675 
	C269.421295,298.937195 269.420288,311.578461 272.070068,323.962433 
	C272.603546,326.455658 272.401550,328.923828 270.954651,331.580688 
z"/>
<path fill="#000000" opacity="1.000000" stroke="none" 
	d="
M261.826538,155.911102 
	C261.860291,153.175644 261.277283,150.846054 262.616302,147.278793 
	C273.750641,164.999176 279.643005,183.438492 282.061218,203.153229 
	C270.148987,189.753418 263.428528,174.157059 261.826538,155.911102 
z"/>
</svg>